<svg xmlns="http://www.w3.org/2000/svg" width="59.768" height="12.643" viewBox="0 0 59.768 12.643">
  <path id="Path_437" data-name="Path 437" d="M350.3,265.33l.31.38c-.33.66-.6.45-.3,1,0-1.36,1.14-.19,1.13-1.54l.21.27c-.06,0-.07.07-.12.06.4.63.24-1,.73-.82.18.1.3.29.19.45l.37-.35c.11,0,.09.26,0,.24l.57-.13h0a3.818,3.818,0,0,1,.33-.7c.15.19-.07.15,0,.31l.3-.34c.15.35-.1.7-.32.66.36,1.34.24-.35.93.4l-.29.19c.23.76.45.47.82.93-.1-.25-.75-1.17-.42-1.53.1.1.23.14.41-.15,0,.49.2.36.43.32v.64c.24-.2.2-.53.33-.82.28,0,.36.54.45.95.45.07-.35-.78.16-.93.39.23.63,0,1-.46.27.21,0,.39.08.57l.2-.52c.06,0,.05.17,0,.25.18-.21,0-.64.27-.83,0-.71.68,1,1,.16.11.17,0,.39,0,.64a3.38,3.38,0,0,0,.78-1.15l.39.4c-.3-.47,0-1.06.26-1.54-.11-.23-.21-.42-.27-.52l.44-.37a.92.92,0,0,1,0,.59l.07-.16a1.11,1.11,0,0,1,0,1l-.19-.39a3.639,3.639,0,0,0-.12,1.21.37.37,0,0,1,.14-.18.589.589,0,0,0,0,.26c0,.07.06-.08.12-.25l.16.71v-.29l.64.41c.39-.75.69-1.83,1.36-2.18a4.431,4.431,0,0,0,.07,1.48c-.24-.64-.52.31-.89.21.19.05.17.35.13.46l.6-.65c0,.51.17.37.35.57-.21-1,.43-.71.66-1,.05.34,0,.68-.31.63.41.72.35-1.21.75-.6-.08,0-.12,0-.14.14a.29.29,0,0,1,.54.18h-.07c.52.07,1.57-.13,1.57-1v1.2l.66-2.93c0,.73.46,2.44.07,2.89.13.09.29.2.53-.08a2.073,2.073,0,0,1-.2-1.11c.39.78.26.41.71,1.06-.14-.14-.11-1.3.09-1.28a11.079,11.079,0,0,1,.07,1.25l.38-1.17a2.48,2.48,0,0,0,.21,1.26c-.07-.22.43,0,.55-.15l-.23-.24c.57.12.4-1.62.95-1.62,0,.24,0,1.44.28,1.55.07-.58.29-2.81.72-3.3l.13.32.33-.41a24.2,24.2,0,0,1-.89,3.5c.24.24.1.38.41.32a.37.37,0,0,1-.21.51l.75.13c-.1-.67.49-.73.4-1.28l-.72.77c-.1-.67.26-1.94.78-1.88.16.25,0,1.2.07,1.42,0-.24.44-.49.51-.33l-.18.38c.31.22.37-.94.78-.34.13,0,.45.82.43.42a14.15,14.15,0,0,1-.51-3.68,6.082,6.082,0,0,1,.88,1c.26.57-.14,1.46.09,1.95a1.25,1.25,0,0,1,.1-.5c.15.14,0,.57.28.46,0-.68.56,0,.06-.59.24-.22.3.11.61.05a2.59,2.59,0,0,1,.34-1.75,1.7,1.7,0,0,0,.14.49c.55,0,.87.27,1.38.21.07.16.33.33.27.63.05-.12.09-.36.25-.4.37.55-.34.14,0,.81,0-.4.33-.59.52-.87-.14-.6-.52,0-.72.22a2.82,2.82,0,0,1,.65-2.21c.4-.26.25.52.31.39.81,0,.48-1.55,1.21-1,.33.5.15,1.06.26,1.44-.32.24-.57-.27-.8-.22l.32.21c-.09.2-.3.36-.44.22.28.45,1.34-.07,2,.28.08-.19.24-.4.12-.6l-.18.1c-.23-.41.28-.65,0-.81.22-.34.44-.86.83-.66l.16.59c0-.17-.29-.32-.37-.13.12-.29.67.75.73-.07l-.31-.38c.21-.35.44-1,.78-.89-.23-.58-.06.08-.39-.59.32.85-.82.08-.37.95-.35-.78-.45-.29-.85-.94,0,.2.16.37-.12.31v.18h0a.81.81,0,0,1,.17.28c-.07.48-.49.53-.61.79-.17-.08,0-.24-.08-.44l-.16.38c-.08-.44-.52-.68-.18-1h-.34c-.24-.22-.52-.29-.66-.08-.18-.08-.34.54-.25.18l-.49.34V258c-.53,0-1,.87-1.68.14a.6.6,0,0,1-.63.21l-.11-.38c-.21.17-.72-.31-.77.11-.36-1-1.12-.11-1.54-.25l.05.51a1.42,1.42,0,0,0-.84.42l.07.44c-.26.4-.79-.23-1.25-.14,0-.17.14-.14.23,0-.66-.95-1.09.85-1.67.16-.11.18-.21.13-.3,0h-.05l-.2-.22a1.5,1.5,0,0,0,.17.23.87.87,0,0,0-.36.21l-.11-.47h0c-.16-.17-.1.23,0,.59a.87.87,0,0,0-.17.3c-.19-.76-.35.3-.58-.51-.06.41-.7.38-.69,1.23,0-.11-.07-.16,0-.17-.17-.08-.34-.16-.46.09l-.12-.6-.28.85a1,1,0,0,1-.19-1.05c-.44.77-.39.31-.76,1.06v-.4c-.15,0-.36.58-.48.26-.41-.72-1.73.05-2.67-.58.26,1.15-.46-.48-.42.42-.08-.27-.21-.42-.09-.67-.43.31-.71-.38-1,.4-.07-.28.07-.41,0-.57,0,.06-.13.25-.19.09s.05-.24.12-.36c-.46.07-.45.93-.42,1.72-.27-.36-.38-.29-.51.24-.11-.26-.26-.52,0-.63-.16,0-1-.31-1,.33-.06-.16-.23,0-.27,0a2.15,2.15,0,0,0-.76,0l.11.1c-.09.78-.29.19-.57.3v-.08c-.7-.52-.27.28-1-.31l.06.47c0,1-.62-.57-1-.16l.15.27c-.19.36-.66-1.37-.87-1.48a.348.348,0,0,1,.12-.22c-.58-.58,0,.63-.43.8-.1-.34,0-.87-.23-.91-.15-.27-.73,1.14-1.14.51.1.26.19.51,0,.72s-.83-.95-1.05-.12a.41.41,0,0,1-.06-.2c-.21.22-.7.38-.82.83-.27-1.64-1.34.87-1.4-.66l-.67.11v-.15c-.44-.09-.58.28-.72.65-.1-.1,0-.24,0-.32-.65-.29-.7-.22-1.21.55l-.08-.49c-.13.29-.94-.75-1.54-.15a.42.42,0,0,1,.06-.23c-.69.61-1.71-1.33-1.92.48l-.46.45c.6.13-.07.79.18,1.08-.24.11-.62-.53-.33-.63v.09c.09-.94-.75-.32-.74-1-1.18.06-2.34-.43-3.44-.47l.13.73h-.38c-.1-.17-.14-.58.13-.55-.14-.41-.45.35-.46.51-.54-.29.21-.85,0-.87l-.22.06.05.08c-.18.3-.2.62-.53.58s-.11-.45-.19-.48,0-.07-.12,0l-.49-.06.19.58c-.21.28-.45,0-.23.62-.33-1-1.81-.36-2-.68a.83.83,0,0,1-1,.35c.09.13.14.78-.18.69.13-1.34-.57-.59-.82-1.55.22.64-.9.15-.56,1.06-.26-.11,0-.5-.2-.82-.64.52-1.38-.36-2.17-.21,0,.18.11.45-.06.71l-.39-.89c-.16.08-.17,1-.43.39,0,.15.09.38,0,.43-1.5-.88-3.15.62-4.64-1.05.2.34.06.37-.1.38.1.08,0,.43,0,.67l-.62-.68c-.15.65-.7,0-.8.64l.21-.1c-.3.73.32,1.67.24,2.63.34-.84.76,1.28,1.32.09.1.2-.11.3-.06.53.15-.41.3-.49.58-.29v.1c.81-.07,1.14.35,2,.64l-.05-.47c.19.07.23.22.32.34.24-.71-.55-.06-.32-.84.23,1,1.37,0,1.52,1.14.3,0-.07-.55.23-.53l.07.3.09-.38c.19.06.28.44.28.69,0,0-.13.06-.19.08.25.36.73-.1.81,0l-.28-.19c.82-.26,1.82.16,2.62-.44v-.23c.61-.4.48.26,1.14.07v.05a.5.5,0,0,1,.49-.3c-.17.26.32.51.09.8.66-.44.33-.35.77-1.17l.1.37c.15-.33.16-.51.49-.6-.27.31.21.56-.1,1,.7.82,1-.81,1.36.37.32-1-.61-.57-.43-.79-.14-.33.27-.76.49-.66s.37,1.31.93,1.29c0,0-.06.07-.11.07.21.26.41-.36.67.07.14-.63.33,0,.37-.76l-.51.18c.29-.2.55-1.13,1-.68a1.2,1.2,0,0,1-.27.48c.14.24.27-.15.42.09,0,.79-.63.17-.94.78.16.33.59-.58.44.28.22-1.09.55.14.93-.7v.48c.06-.08.19-.3.3-.29l-.2.61c.3-.52.6.46.89.17-.62,0-.14-.57-.41-.91.76-.65.45,1.23,1.3,1-.11.07-.43-.28-.26-.5a1.18,1.18,0,0,1,.49.52c.56-.11-.1-.48.14-.78.2.57.27-.24.52-.43v.48c.65.3.15-1,.74-.64l-.24.67.3-.18-.05.55c.32-.41.42-.31.75-.16-.08-.34,0-.87.31-.89.2.28-.1.46.3.38-.08.31-.18.69-.36.24a3.409,3.409,0,0,1-.1.46c.22.33.53.07.68.06a.23.23,0,0,1-.17-.11l.57-.68a.46.46,0,0,1,0,.47c.12-.06.2-.28.37-.33,0,.4,0,.8-.26,1l.55-.45c0,.17.3.46.23.61.32.22.74-.79,1.16-.49a.33.33,0,0,1,.14-.21c.39.07.75.54,1.19,0l.28.7c.35-.17-.38-.88.21-1.16.41-.24.18.59.33.78.2-.36.53-1.1.94-.54C350.52,265.38,350.42,265.28,350.3,265.33Zm4.39-.51c-.08.11-.23.43-.31.15.07-.56.16-.3.31-.15Zm6.61-1.58c-.05.16-.16.09-.28-.09C361.1,263.11,361.19,263.12,361.3,263.24ZM379.37,258h0C379.16,257.88,379.23,257.94,379.37,258Zm.42.16a.23.23,0,0,0,0-.2c0,.13-.1.14-.2.12s.1.22.2.09Zm-41.83,3,.07.13c-.17.13-.12,0-.03-.14Z" transform="translate(-308.699 -273.717) rotate(3)" fill="#728073"/>
</svg>
